<svg xmlns="http://www.w3.org/2000/svg" width="1600" height="900" viewBox="0 0 1600 900" fill="none">
  <rect width="1600" height="900" fill="#11111b" />
  <rect x="28" y="28" width="1544" height="844" rx="36" fill="#181825" stroke="#313244" />
  <text x="72" y="106" font-size="52" font-weight="800" fill="#cdd6f4">Catppuccin for Zettlr</text>
  <text x="72" y="148" font-size="24" fill="#a6adc8">Default auto variant</text>
  <text x="72" y="180" font-size="20" fill="#7f849c">Latte in light mode. Mocha in dark mode.</text>

  <g transform="translate(72, 208)">
    <rect width="340" height="280" rx="24" fill="#dce0e8" stroke="#bcc0cc" />
    <text x="28" y="42" font-size="28" font-weight="700" fill="#4c4f69">Latte</text>
    <text x="28" y="68" font-size="16" fill="#6c6f85">light flavor</text>
    <rect x="28" y="292" width="284" height="144" rx="18" fill="#eff1f5" stroke="#bcc0cc" />
    <rect x="44" y="310" width="92" height="12" rx="6" fill="#7287fd" />
    <rect x="44" y="334" width="236" height="10" rx="5" fill="#8c8fa1" opacity="0.65" />
    <rect x="44" y="356" width="200" height="10" rx="5" fill="#9ca0b0" opacity="0.65" />
    <rect x="44" y="384" width="72" height="28" rx="14" fill="#8839ef" />
    <rect x="126" y="384" width="72" height="28" rx="14" fill="#1e66f5" />
    <rect x="208" y="384" width="72" height="28" rx="14" fill="#ccd0da" stroke="#bcc0cc" />
    <circle cx="272" cy="326" r="7" fill="#dc8a78" />
    <rect x="28" y="224" width="284" height="14" rx="7" fill="#ccd0da" />
    <rect x="28" y="248" width="64" height="14" rx="7" fill="#df8e1d" />
    <rect x="102" y="248" width="64" height="14" rx="7" fill="#40a02b" />
    <rect x="176" y="248" width="64" height="14" rx="7" fill="#d20f39" />
  </g>

  <g transform="translate(444, 208)">
    <rect width="340" height="280" rx="24" fill="#11111b" stroke="#45475a" />
    <text x="28" y="42" font-size="28" font-weight="700" fill="#cdd6f4">Mocha</text>
    <text x="28" y="68" font-size="16" fill="#a6adc8">dark flavor</text>
    <rect x="28" y="292" width="284" height="144" rx="18" fill="#1e1e2e" stroke="#45475a" />
    <rect x="44" y="310" width="92" height="12" rx="6" fill="#b4befe" />
    <rect x="44" y="334" width="236" height="10" rx="5" fill="#7f849c" opacity="0.65" />
    <rect x="44" y="356" width="200" height="10" rx="5" fill="#6c7086" opacity="0.65" />
    <rect x="44" y="384" width="72" height="28" rx="14" fill="#cba6f7" />
    <rect x="126" y="384" width="72" height="28" rx="14" fill="#89b4fa" />
    <rect x="208" y="384" width="72" height="28" rx="14" fill="#313244" stroke="#45475a" />
    <circle cx="272" cy="326" r="7" fill="#f5e0dc" />
    <rect x="28" y="224" width="284" height="14" rx="7" fill="#313244" />
    <rect x="28" y="248" width="64" height="14" rx="7" fill="#f9e2af" />
    <rect x="102" y="248" width="64" height="14" rx="7" fill="#a6e3a1" />
    <rect x="176" y="248" width="64" height="14" rx="7" fill="#f38ba8" />
  </g>
</svg>